# AST/ASF file generated using VICON BodyLanguage
# -----------------------------------------------
:version 1.10
:name VICON
:units
  mass 1.0
  length 0.45
  angle deg
:documentation
   .ast/.asf automatically generated from VICON data using
   VICON BodyBuilder and BodyLanguage model FoxedUp or BRILLIANT.MOD
:root
   order TX TY TZ RX RY RZ
   axis XYZ
   position 0 0 0  
   orientation 0 0 0 
:bonedata
  begin
     id 1 
     name lhipjoint
     direction 0.62366 -0.717238 0.310833 
     length 2.53602 
     axis 0 0 0  XYZ
  end
  begin
     id 2 
     name lfemur
     direction 0.34202 -0.939693 0  
     length 7.40817  
     axis 0 0 20  XYZ
    dof rx ry rz
    limits (-160.0 20.0)
           (-70.0 70.0)
           (-60.0 70.0)
  end
  begin
     id 3 
     name ltibia
     direction 0.34202 -0.939693 0   
     length 7.7045   
     axis 0 0 20   XYZ
    dof rx
    limits (-10.0 170.0)
  end
  begin
     id 4 
     name lfoot
     direction 0.0673888 -0.185149 0.980397   
     length 2.09456   
     axis -90 7.62852e-016 20   XYZ
    dof rx rz
    limits (-45.0 90.0)
           (-70.0 20.0)
  end
  begin
     id 5 
     name ltoes
     direction 1.53575e-011 -4.21994e-011 1   
     length 1.05543   
     axis -90 7.62852e-016 20   XYZ
    dof rx
    limits (-90.0 20.0)
  end
  begin
     id 6 
     name rhipjoint
     direction -0.489018 -0.800347 0.346851   
     length 2.27268  
     axis 0 0 0  XYZ 
  end
  begin
     id 7 
     name rfemur
     direction -0.34202 -0.939693 0   
     length 7.55487   
     axis 0 0 -20   XYZ
    dof rx ry rz
    limits (-160.0 20.0)
           (-70.0 70.0)
           (-70.0 60.0)
  end
  begin
     id 8 
     name rtibia
     direction -0.34202 -0.939693 0   
     length 7.78969   
     axis 0 0 -20   XYZ
    dof rx
    limits (-10.0 170.0)
 end
 begin
     id 9 
     name rfoot
     direction -0.0859318 -0.236096 0.967923   
     length 2.19143  
     axis -90 -7.62852e-016 -20   XYZ
    dof rx rz
    limits (-45.0 90.0)
           (-20.0 70.0)
  end
  begin
     id 10 
     name rtoes
     direction -1.53538e-011 -4.21989e-011 1   
     length 1.09845   
     axis -90 -7.62852e-016 -20   XYZ
    dof rx
    limits (-90.0 20.0)
  end
  begin
     id 11 
     name lowerback
     direction -0.00762546 0.998978 -0.0445553   
     length 1.98161   
     axis 0 0 0   XYZ
    dof rx ry rz
    limits (-20.0 45.0)
           (-30.0 30.0)
           (-30.0 30.0)
  end
  begin
     id 12 
     name upperback
     direction 0.0422361 0.998867 -0.0219156   
     length 1.97558   
     axis 0 0 0   XYZ
    dof rx ry rz
    limits (-20.0 45.0)
           (-30.0 30.0)
           (-30.0 30.0)
  end
  begin
     id 13 
     name thorax
     direction 0.0442465 0.999021 7.47603e-005   
     length 1.97799   
     axis 0 0 0   XYZ
    dof rx ry rz
    limits (-20.0 45.0)
           (-30.0 30.0)
           (-30.0 30.0)
  end
  begin
     id 14 
     name lowerneck
     direction 0.00312169 0.984641 0.174564   
     length 1.78995   
     axis 0 0 0   XYZ
    dof rx ry rz
    limits (-20.0 45.0)
           (-30.0 30.0)
           (-30.0 30.0)
  end
  begin
     id 15 
     name upperneck
     direction -0.0383028 0.985255 -0.166749   
     length 1.83053   
     axis 0 0 0   XYZ
    dof rx ry rz
    limits (-20.0 45.0)
           (-30.0 30.0)
           (-30.0 30.0)
  end
  begin
     id 16
     name head
     direction -0.0129546 0.997059 -0.0755386  
     length 1.84088  
     axis 0 0 0   XYZ
    dof rx ry rz
    limits (-20.0 45.0)
           (-30.0 30.0)
           (-30.0 30.0)
  end
  begin
     id 17 
     name lclavicle
     direction 0.912857 0.370519 -0.171488  
     length 3.51279  
     axis 0 0 0   XYZ
    dof ry rz
    limits (-20.0 10.0)
           (0.0 20.0)
  end
  begin
     id 18 
     name lhumerus
     direction 1 -4.48962e-011 3.64361e-027   
     length 4.95663   
     axis 180 -30 -90   XYZ
    dof rx ry rz
    limits (-60.0 90.0)
           (-90.0 90.0)
           (-90.0 90.0)
  end
  begin
     id 19
     name lradius
     direction 1 -4.48974e-011 5.97202e-027   
     length 3.38177   
     axis 180 -30 -90   XYZ
    dof rx
    limits (-10.0 170.0)
  end
  begin
     id 20
     name lwrist
     direction 1 -4.4896e-011 9.83288e-027   
     length 1.69088   
     axis -9.31221e-015 90 90   XYZ
    dof ry
    limits (-180.0 0.0)
 end
  begin
     id 21 
     name lhand
     direction 1 -4.4902e-011 1.96551e-026   
     length 0.662909   
     axis -1.25475e-014 90 90   XYZ
    dof rx rz
    limits (-90.0 90.0)
           (-45.0 45.0)
  end
  begin
     id 22 
     name lfingers
     direction 1 -4.48971e-011 3.93277e-026   
     length 0.534454   
     axis -2.50945e-014 90 90   XYZ
    dof rx
    limits (0.0 90.0)
  end
  begin
     id 23
     name lthumb
     direction 0.707107 -6.34933e-011 0.707107   
     length 0.767373   
     axis -90 45 -4.80359e-014   XYZ
    dof rx rz
    limits (-45.0 45.0)
           (-45.0 45.0)
  end
  begin
     id 24 
     name rclavicle
     direction -0.900919 0.395364 -0.178976   
     length 3.40627  
     axis 0 0 0   XYZ 
    dof ry rz
    limits (-10.0 20.0)
           (-20.0 0.0)
  end
  begin
     id 25 
     name rhumerus
     direction -1 -4.48969e-011 1.03875e-027  
     length 5.08365   
     axis 180 30 90   XYZ
    dof rx ry rz
    limits (-90.0 60.0)
           (-90.0 90.0)
           (-90.0 90.0)
  end
  begin
     id 26 
     name rradius
     direction -1 -4.48951e-011 5.02733e-027   
     length 3.35984   
     axis 180 30 90   XYZ
    dof rx
    limits (-10.0 170.0)
  end
  begin
     id 27 
     name rwrist
     direction -1 -4.49011e-011 9.82828e-027   
     length 1.67992   
     axis -9.31221e-015 -90 -90   XYZ
    dof ry
    limits (-180.0 0.0)
  end
  begin
     id 28
     name rhand
     direction -1 -4.48894e-011 1.96774e-026   
     length 0.820764   
     axis -1.25475e-014 -90 -90   XYZ
    dof rx rz
    limits (-90.0 90.0)
           (-45.0 45.0)
  end
  begin
     id 29
     name rfingers
     direction -1 -4.49095e-011 3.92833e-026   
     length 0.661721   
     axis -2.50945e-014 -90 -90   XYZ
    dof rx
    limits (0.0 90.0)
  end
  begin
     id 30
     name rthumb
     direction -0.707107 -6.34881e-011 0.707107   
     length 0.950103   
     axis -90 -45 4.80359e-014   XYZ
    dof rx rz
    limits (-45.0 45.0)
           (-45.0 45.0)
  end
:hierarchy
  begin
    root lhipjoint rhipjoint lowerback
    lhipjoint lfemur
    lfemur ltibia
    ltibia lfoot
    lfoot ltoes
    rhipjoint rfemur
    rfemur rtibia
    rtibia rfoot
    rfoot rtoes
    lowerback upperback
    upperback thorax
    thorax lowerneck lclavicle rclavicle
    lowerneck upperneck
    upperneck head
    lclavicle lhumerus
    lhumerus lradius
    lradius lwrist
    lwrist lhand lthumb
    lhand lfingers
    rclavicle rhumerus
    rhumerus rradius
    rradius rwrist
    rwrist rhand rthumb
    rhand rfingers
  end

#!OML:ASF I:\golf\golf\golf 2\Subject 1\2002-09-07\Subject1.ASF
:FULLY-SPECIFIED
:DEGREES
62
root -8.13929 17.5921 -0.263587 -112.075 86.6118 -127.586
lowerback 5.02836 2.03209 -1.38536
upperback 3.67685 2.80167 4.78882
thorax 0.670469 1.39748 5.61205
lowerneck -15.1339 -2.32781 1.1628
upperneck 37.5777 -0.242251 -4.97046
head 15.8315 -0.102061 -2.24736
rclavicle 1.35174e-014 0
rhumerus -3.79867 -0.00708121 -101.069
rradius 22.652
rwrist -40.1251
rhand -17.1437 -8.93667
rfingers 7.12502
rthumb 9.09668 -38.7205
lclavicle 1.35174e-014 0
lhumerus -7.32023 -40.1553 109.507
lradius 25.7305
lwrist 44.3725
lhand -16.3839 69.2583
lfingers 7.12502
lthumb -170.17 80.9912
rfemur -31.3294 -2.50888 10.43
rtibia 32.6227
rfoot -9.80879 -9.30068
rtoes -21.2926
lfemur -33.1997 5.60929 -8.75346
ltibia 33.8881
lfoot -12.8459 -5.38417
ltoes -19.6388
63
root -8.13994 17.5917 -0.264506 -112.569 86.6359 -128.079
lowerback 5.0327 2.00977 -1.44755
upperback 3.67419 2.76868 4.77164
thorax 0.666973 1.37973 5.63097
lowerneck -15.1128 -2.27869 1.25544
upperneck 37.5607 -0.180925 -5.02124
head 15.8197 -0.0706203 -2.27456
rclavicle 4.6118e-014 8.18993e-014
rhumerus -3.82858 -0.0139323 -101.167
rradius 22.7048
rwrist -40.1834
rhand -17.4398 -9.01265
rfingers 7.12502
rthumb 8.81095 -38.8087
lclavicle 4.6118e-014 8.18993e-014
lhumerus -7.26536 -40.0004 109.408
lradius 25.6001
lwrist 44.0306
lhand -16.1094 69.5741
lfingers 7.12502
lthumb -169.905 80.688
rfemur -31.3039 -2.5073 10.3798
rtibia 32.5925
rfoot -9.7077 -9.28341
rtoes -21.4302
lfemur -33.2195 5.58559 -8.79661
ltibia 33.9049
lfoot -12.8566 -5.35835
ltoes -19.7462
64
root -8.13977 17.5934 -0.266354 -112.634 86.6388 -128.119
lowerback 5.05189 2.0151 -1.45289
upperback 3.67877 2.77552 4.7619
thorax 0.660491 1.38316 5.62277
lowerneck -15.0963 -2.25752 1.25465
upperneck 37.5548 -0.164894 -4.9798
head 15.8136 -0.0582403 -2.25322
rclavicle 1.94809e-014 1.74931e-014
rhumerus -3.92173 0.357643 -101.219
rradius 22.94
rwrist -41.0529
rhand -18.243 -9.1336
rfingers 7.12502
rthumb 8.03584 -38.9608
lclavicle 1.94809e-014 1.74931e-014
lhumerus -7.20302 -39.7741 109.349
lradius 25.3418
lwrist 43.3173
lhand -14.6668 69.6647
lfingers 7.12502
lthumb -168.514 80.6699
rfemur -31.2587 -2.4697 10.3574
rtibia 32.5603
rfoot -9.69654 -9.35324
rtoes -21.5504
lfemur -33.2028 5.58309 -8.80635
ltibia 33.9084
lfoot -12.861 -5.37728
ltoes -19.5686
65
root -8.13894 17.5956 -0.268837 -111.9 86.5626 -127.384
lowerback 5.01685 2.02551 -1.35854
upperback 3.68723 2.79382 4.78595
thorax 0.689758 1.39365 5.5949
lowerneck -15.0923 -2.25095 1.17983
upperneck 37.5486 -0.157698 -4.9094
head 15.811 -0.0562569 -2.20782
rclavicle 2.62396e-014 2.38542e-014
rhumerus -4.0661 1.30481 -101.225
rradius 23.3884
rwrist -43.0026
rhand -19.6003 -9.25634
rfingers 7.12502
rthumb 6.72569 -39.1295
lclavicle 2.62396e-014 2.38542e-014
lhumerus -7.17418 -39.7394 109.309
lradius 25.2717
lwrist 43.0597
lhand -13.7994 69.6171
lfingers 7.12502
lthumb -167.678 80.766
rfemur -31.2422 -2.44933 10.4464
rtibia 32.5304
rfoot -9.6461 -9.39104
rtoes -21.6096
lfemur -33.2048 5.62628 -8.72476
ltibia 33.9062
lfoot -12.8914 -5.4078
ltoes -19.6674
66
root -8.13825 17.5951 -0.270468 -111.658 86.5326 -127.168
lowerback 4.96478 2.04025 -1.35236
upperback 3.68206 2.81383 4.81106
thorax 0.710384 1.40349 5.61866
lowerneck -15.083 -2.25618 1.17712
upperneck 37.5375 -0.150577 -4.94449
head 15.8035 -0.0580796 -2.22065
rclavicle -3.4191e-014 -2.54444e-014
rhumerus -4.08108 1.50359 -101.25
rradius 23.508
rwrist -43.7677
rhand -20.2612 -9.31429
rfingers 7.12502
rthumb 6.08767 -39.2068
lclavicle -3.4191e-014 -2.54444e-014
lhumerus -7.16283 -39.6368 109.335
lradius 25.2505
lwrist 42.9697
lhand -14.3548 69.7136
lfingers 7.12502
lthumb -168.213 80.6381
rfemur -31.2599 -2.4345 10.4728
rtibia 32.5067
rfoot -9.56106 -9.39376
rtoes -22.002
lfemur -33.2315 5.64904 -8.7026
ltibia 33.911
lfoot -12.9273 -5.39924
ltoes -20.0012
